<svg width="100%" height="100%" viewBox="0 0 205 32" fill="none" xmlns="http://www.w3.org/2000/svg">
<path d="M180.641 32H24.3588C10.8529 32 0 26.965 0 20.6993V19.2447C0 8.61538 18.5706 0 41.4824 0H163.518C186.429 0 205 8.61538 205 19.2447V20.6993C205 26.965 194.147 32 180.641 32Z" fill="#B7AEA4"/>
<path opacity="0.2" d="M183.053 2.23779C183.294 3.24479 183.294 4.25178 183.294 5.25877C183.294 18.1259 160.865 28.5315 133.129 28.5315H6.75293C11.0941 30.6574 17.3647 32 24.3588 32H180.641C194.147 32 205 26.9651 205 20.6993V19.2448C205 11.8602 196.076 5.48255 183.053 2.23779Z" fill="black"/>
<path d="M36.4176 15.7762C40.2765 13.0909 43.4118 10.4056 46.7882 8.05594C50.1647 5.5944 53.5412 3.35664 57.4 1.45454C58.3647 1.00699 59.3294 0.447552 60.2941 0H44.6176C41.7235 1.9021 39.5529 4.02797 38.1059 6.26573C36.1765 9.28671 35.4529 12.5315 36.4176 15.7762Z" fill="#DDD6C7"/>
<path d="M71.3882 15.7762C75.247 13.0909 78.3823 10.4056 81.7588 8.05594C85.1353 5.5944 88.5117 3.35664 92.3706 1.45454C93.3353 1.00699 94.3 0.447552 95.2647 0H79.5882C76.6941 1.9021 74.5235 4.02797 73.0765 6.26573C71.147 9.28671 70.4235 12.5315 71.3882 15.7762Z" fill="#DDD6C7"/>
<path d="M106.359 15.7762C110.218 13.0909 113.353 10.4056 116.729 8.05594C120.106 5.5944 123.482 3.35664 127.341 1.45454C128.306 1.00699 129.271 0.447552 130.235 0H114.559C111.665 1.9021 109.494 4.02797 108.047 6.26573C106.118 9.28671 105.394 12.5315 106.359 15.7762Z" fill="#DDD6C7"/>
<path d="M141.329 15.7761C145.188 13.0908 148.324 10.4055 151.7 8.05587C155.076 5.59433 158.453 3.35657 162.312 1.45447L165.206 0.111816H149.529C146.635 2.01391 144.465 4.13979 143.018 6.37755C141.088 9.28664 140.124 12.5314 141.329 15.7761Z" fill="#DDD6C7"/>
<path d="M75.2739 18.844V25H73.7859V18.844H75.2739ZM75.4779 17.05C75.4779 17.178 75.4519 17.298 75.3999 17.41C75.3479 17.522 75.2779 17.62 75.1899 17.704C75.1059 17.788 75.0059 17.856 74.8899 17.908C74.7739 17.956 74.6499 17.98 74.5179 17.98C74.3899 17.98 74.2679 17.956 74.1519 17.908C74.0399 17.856 73.9419 17.788 73.8579 17.704C73.7739 17.62 73.7059 17.522 73.6539 17.41C73.6059 17.298 73.5819 17.178 73.5819 17.05C73.5819 16.918 73.6059 16.794 73.6539 16.678C73.7059 16.562 73.7739 16.462 73.8579 16.378C73.9419 16.294 74.0399 16.228 74.1519 16.18C74.2679 16.128 74.3899 16.102 74.5179 16.102C74.6499 16.102 74.7739 16.128 74.8899 16.18C75.0059 16.228 75.1059 16.294 75.1899 16.378C75.2779 16.462 75.3479 16.562 75.3999 16.678C75.4519 16.794 75.4779 16.918 75.4779 17.05ZM78.1707 19.6C78.2947 19.476 78.4247 19.362 78.5607 19.258C78.7007 19.15 78.8467 19.06 78.9987 18.988C79.1547 18.912 79.3207 18.854 79.4967 18.814C79.6727 18.77 79.8647 18.748 80.0727 18.748C80.4087 18.748 80.7067 18.806 80.9667 18.922C81.2267 19.034 81.4427 19.194 81.6147 19.402C81.7907 19.606 81.9227 19.852 82.0107 20.14C82.1027 20.424 82.1487 20.738 82.1487 21.082V25H80.6667V21.082C80.6667 20.706 80.5807 20.416 80.4087 20.212C80.2367 20.004 79.9747 19.9 79.6227 19.9C79.3667 19.9 79.1267 19.958 78.9027 20.074C78.6787 20.19 78.4667 20.348 78.2667 20.548V25H76.7847V18.844H77.6907C77.8827 18.844 78.0087 18.934 78.0687 19.114L78.1707 19.6ZM86.8102 22.372C86.3822 22.392 86.0222 22.43 85.7302 22.486C85.4382 22.538 85.2042 22.606 85.0282 22.69C84.8522 22.774 84.7262 22.872 84.6502 22.984C84.5742 23.096 84.5362 23.218 84.5362 23.35C84.5362 23.61 84.6122 23.796 84.7642 23.908C84.9202 24.02 85.1222 24.076 85.3702 24.076C85.6742 24.076 85.9362 24.022 86.1562 23.914C86.3802 23.802 86.5982 23.634 86.8102 23.41V22.372ZM83.4142 19.702C84.1222 19.054 84.9742 18.73 85.9702 18.73C86.3302 18.73 86.6522 18.79 86.9362 18.91C87.2202 19.026 87.4602 19.19 87.6562 19.402C87.8522 19.61 88.0002 19.86 88.1002 20.152C88.2042 20.444 88.2562 20.764 88.2562 21.112V25H87.5842C87.4442 25 87.3362 24.98 87.2602 24.94C87.1842 24.896 87.1242 24.81 87.0802 24.682L86.9482 24.238C86.7922 24.378 86.6402 24.502 86.4922 24.61C86.3442 24.714 86.1902 24.802 86.0302 24.874C85.8702 24.946 85.6982 25 85.5142 25.036C85.3342 25.076 85.1342 25.096 84.9142 25.096C84.6542 25.096 84.4142 25.062 84.1942 24.994C83.9742 24.922 83.7842 24.816 83.6242 24.676C83.4642 24.536 83.3402 24.362 83.2522 24.154C83.1642 23.946 83.1202 23.704 83.1202 23.428C83.1202 23.272 83.1462 23.118 83.1982 22.966C83.2502 22.81 83.3342 22.662 83.4502 22.522C83.5702 22.382 83.7242 22.25 83.9122 22.126C84.1002 22.002 84.3302 21.894 84.6022 21.802C84.8782 21.71 85.1982 21.636 85.5622 21.58C85.9262 21.52 86.3422 21.484 86.8102 21.472V21.112C86.8102 20.7 86.7222 20.396 86.5462 20.2C86.3702 20 86.1162 19.9 85.7842 19.9C85.5442 19.9 85.3442 19.928 85.1842 19.984C85.0282 20.04 84.8902 20.104 84.7702 20.176C84.6502 20.244 84.5402 20.306 84.4402 20.362C84.3442 20.418 84.2362 20.446 84.1162 20.446C84.0122 20.446 83.9242 20.42 83.8522 20.368C83.7802 20.312 83.7222 20.248 83.6782 20.176L83.4142 19.702ZM94.0619 20.146C94.0179 20.202 93.9739 20.246 93.9299 20.278C93.8899 20.31 93.8299 20.326 93.7499 20.326C93.6739 20.326 93.5999 20.304 93.5279 20.26C93.4559 20.212 93.3699 20.16 93.2699 20.104C93.1699 20.044 93.0499 19.992 92.9099 19.948C92.7739 19.9 92.6039 19.876 92.3999 19.876C92.1399 19.876 91.9119 19.924 91.7159 20.02C91.5199 20.112 91.3559 20.246 91.2239 20.422C91.0959 20.598 90.9999 20.812 90.9359 21.064C90.8719 21.312 90.8399 21.594 90.8399 21.91C90.8399 22.238 90.8739 22.53 90.9419 22.786C91.0139 23.042 91.1159 23.258 91.2479 23.434C91.3799 23.606 91.5399 23.738 91.7279 23.83C91.9159 23.918 92.1279 23.962 92.3639 23.962C92.5999 23.962 92.7899 23.934 92.9339 23.878C93.0819 23.818 93.2059 23.754 93.3059 23.686C93.4059 23.614 93.4919 23.55 93.5639 23.494C93.6399 23.434 93.7239 23.404 93.8159 23.404C93.9359 23.404 94.0259 23.45 94.0859 23.542L94.5119 24.082C94.3479 24.274 94.1699 24.436 93.9779 24.568C93.7859 24.696 93.5859 24.8 93.3779 24.88C93.1739 24.956 92.9619 25.01 92.7419 25.042C92.5259 25.074 92.3099 25.09 92.0939 25.09C91.7139 25.09 91.3559 25.02 91.0199 24.88C90.6839 24.736 90.3899 24.528 90.1379 24.256C89.8859 23.984 89.6859 23.652 89.5379 23.26C89.3939 22.864 89.3219 22.414 89.3219 21.91C89.3219 21.458 89.3859 21.04 89.5139 20.656C89.6459 20.268 89.8379 19.934 90.0899 19.654C90.3419 19.37 90.6539 19.148 91.0259 18.988C91.3979 18.828 91.8259 18.748 92.3099 18.748C92.7699 18.748 93.1719 18.822 93.5159 18.97C93.8639 19.118 94.1759 19.33 94.4519 19.606L94.0619 20.146ZM101.651 25H100.169V19.954H97.313V23.29C97.313 23.482 97.359 23.632 97.451 23.74C97.547 23.848 97.677 23.902 97.841 23.902C97.933 23.902 98.009 23.892 98.069 23.872C98.133 23.848 98.187 23.824 98.231 23.8C98.279 23.776 98.321 23.754 98.357 23.734C98.393 23.71 98.429 23.698 98.465 23.698C98.509 23.698 98.545 23.71 98.573 23.734C98.601 23.754 98.631 23.786 98.663 23.83L99.107 24.55C98.891 24.73 98.643 24.866 98.363 24.958C98.083 25.05 97.793 25.096 97.493 25.096C96.957 25.096 96.545 24.946 96.257 24.646C95.973 24.342 95.831 23.924 95.831 23.392V19.954H95.201C95.121 19.954 95.053 19.928 94.997 19.876C94.941 19.824 94.913 19.746 94.913 19.642V19.054L95.903 18.886L96.215 17.212C96.235 17.132 96.273 17.07 96.329 17.026C96.385 16.982 96.457 16.96 96.545 16.96H97.313V18.898H101.651V25ZM101.909 17.026C101.909 17.154 101.883 17.276 101.831 17.392C101.779 17.504 101.709 17.602 101.621 17.686C101.537 17.77 101.435 17.838 101.315 17.89C101.199 17.938 101.075 17.962 100.943 17.962C100.815 17.962 100.695 17.938 100.583 17.89C100.471 17.838 100.373 17.77 100.289 17.686C100.205 17.602 100.137 17.504 100.085 17.392C100.037 17.276 100.013 17.154 100.013 17.026C100.013 16.894 100.037 16.772 100.085 16.66C100.137 16.544 100.205 16.444 100.289 16.36C100.373 16.272 100.471 16.204 100.583 16.156C100.695 16.104 100.815 16.078 100.943 16.078C101.075 16.078 101.199 16.104 101.315 16.156C101.435 16.204 101.537 16.272 101.621 16.36C101.709 16.444 101.779 16.544 101.831 16.66C101.883 16.772 101.909 16.894 101.909 17.026ZM108.714 18.844L106.272 25H104.928L102.486 18.844H103.71C103.822 18.844 103.914 18.87 103.986 18.922C104.062 18.974 104.112 19.04 104.136 19.12L105.324 22.408C105.388 22.6 105.444 22.788 105.492 22.972C105.54 23.156 105.582 23.34 105.618 23.524C105.658 23.34 105.702 23.156 105.75 22.972C105.798 22.788 105.856 22.6 105.924 22.408L107.136 19.12C107.164 19.04 107.214 18.974 107.286 18.922C107.358 18.87 107.444 18.844 107.544 18.844H108.714ZM113.282 21.214C113.282 21.022 113.254 20.842 113.198 20.674C113.146 20.502 113.066 20.352 112.958 20.224C112.85 20.096 112.712 19.996 112.544 19.924C112.38 19.848 112.188 19.81 111.968 19.81C111.54 19.81 111.202 19.932 110.954 20.176C110.71 20.42 110.554 20.766 110.486 21.214H113.282ZM110.456 22.108C110.48 22.424 110.536 22.698 110.624 22.93C110.712 23.158 110.828 23.348 110.972 23.5C111.116 23.648 111.286 23.76 111.482 23.836C111.682 23.908 111.902 23.944 112.142 23.944C112.382 23.944 112.588 23.916 112.76 23.86C112.936 23.804 113.088 23.742 113.216 23.674C113.348 23.606 113.462 23.544 113.558 23.488C113.658 23.432 113.754 23.404 113.846 23.404C113.97 23.404 114.062 23.45 114.122 23.542L114.548 24.082C114.384 24.274 114.2 24.436 113.996 24.568C113.792 24.696 113.578 24.8 113.354 24.88C113.134 24.956 112.908 25.01 112.676 25.042C112.448 25.074 112.226 25.09 112.01 25.09C111.582 25.09 111.184 25.02 110.816 24.88C110.448 24.736 110.128 24.526 109.856 24.25C109.584 23.97 109.37 23.626 109.214 23.218C109.058 22.806 108.98 22.33 108.98 21.79C108.98 21.37 109.048 20.976 109.184 20.608C109.32 20.236 109.514 19.914 109.766 19.642C110.022 19.366 110.332 19.148 110.696 18.988C111.064 18.828 111.478 18.748 111.938 18.748C112.326 18.748 112.684 18.81 113.012 18.934C113.34 19.058 113.622 19.24 113.858 19.48C114.094 19.716 114.278 20.008 114.41 20.356C114.546 20.7 114.614 21.094 114.614 21.538C114.614 21.762 114.59 21.914 114.542 21.994C114.494 22.07 114.402 22.108 114.266 22.108H110.456Z" fill="#152536"/>
</svg>
