<svg width="100%" height="100%" viewBox="0 0 205 32" fill="none" xmlns="http://www.w3.org/2000/svg">
<path d="M180.641 32H24.3588C10.8529 32 0 26.965 0 20.6993V19.2447C0 8.61538 18.5706 0 41.4824 0H163.518C186.429 0 205 8.61538 205 19.2447V20.6993C205 26.965 194.147 32 180.641 32Z" fill="#FFDA92"/>
<path opacity="0.2" d="M183.053 2.23779C183.294 3.24479 183.294 4.25178 183.294 5.25877C183.294 18.1259 160.865 28.5315 133.129 28.5315H6.75293C11.0941 30.6574 17.3647 32 24.3588 32H180.641C194.147 32 205 26.9651 205 20.6993V19.2448C205 11.8602 196.076 5.48255 183.053 2.23779Z" fill="#C9B0B0"/>
<path d="M36.4176 15.7762C40.2765 13.0909 43.4118 10.4056 46.7882 8.05594C50.1647 5.5944 53.5412 3.35664 57.4 1.45454C58.3647 1.00699 59.3294 0.447552 60.2941 0H44.6176C41.7235 1.9021 39.5529 4.02797 38.1059 6.26573C36.1765 9.28671 35.4529 12.5315 36.4176 15.7762Z" fill="#FFF6E2"/>
<path d="M71.3882 15.7762C75.247 13.0909 78.3823 10.4056 81.7588 8.05594C85.1353 5.5944 88.5117 3.35664 92.3706 1.45454C93.3353 1.00699 94.3 0.447552 95.2647 0H79.5882C76.6941 1.9021 74.5235 4.02797 73.0765 6.26573C71.147 9.28671 70.4235 12.5315 71.3882 15.7762Z" fill="#FFF6E2"/>
<path d="M106.359 15.7762C110.218 13.0909 113.353 10.4056 116.729 8.05594C120.106 5.5944 123.482 3.35664 127.341 1.45454C128.306 1.00699 129.271 0.447552 130.235 0H114.559C111.665 1.9021 109.494 4.02797 108.047 6.26573C106.118 9.28671 105.394 12.5315 106.359 15.7762Z" fill="#FFF6E2"/>
<path d="M141.329 15.7761C145.188 13.0908 148.324 10.4055 151.7 8.05587C155.076 5.59433 158.453 3.35657 162.312 1.45447L165.206 0.111816H149.529C146.635 2.01391 144.465 4.13979 143.018 6.37755C141.088 9.28664 140.124 12.5314 141.329 15.7761Z" fill="#FFF6E2"/>
<path d="M72.7391 19.6C72.8631 19.476 72.9931 19.362 73.1291 19.258C73.2691 19.15 73.4151 19.06 73.5671 18.988C73.7231 18.912 73.8891 18.854 74.0651 18.814C74.2411 18.77 74.4331 18.748 74.6411 18.748C74.9771 18.748 75.2751 18.806 75.5351 18.922C75.7951 19.034 76.0111 19.194 76.1831 19.402C76.3591 19.606 76.4911 19.852 76.5791 20.14C76.6711 20.424 76.7171 20.738 76.7171 21.082V25H75.2351V21.082C75.2351 20.706 75.1491 20.416 74.9771 20.212C74.8051 20.004 74.5431 19.9 74.1911 19.9C73.9351 19.9 73.6951 19.958 73.4711 20.074C73.2471 20.19 73.0351 20.348 72.8351 20.548V25H71.3531V18.844H72.2591C72.4511 18.844 72.5771 18.934 72.6371 19.114L72.7391 19.6ZM80.8505 18.748C81.3065 18.748 81.7205 18.822 82.0925 18.97C82.4685 19.118 82.7885 19.328 83.0525 19.6C83.3205 19.872 83.5265 20.204 83.6705 20.596C83.8145 20.988 83.8865 21.426 83.8865 21.91C83.8865 22.398 83.8145 22.838 83.6705 23.23C83.5265 23.622 83.3205 23.956 83.0525 24.232C82.7885 24.508 82.4685 24.72 82.0925 24.868C81.7205 25.016 81.3065 25.09 80.8505 25.09C80.3905 25.09 79.9725 25.016 79.5965 24.868C79.2205 24.72 78.8985 24.508 78.6305 24.232C78.3665 23.956 78.1605 23.622 78.0125 23.23C77.8685 22.838 77.7965 22.398 77.7965 21.91C77.7965 21.426 77.8685 20.988 78.0125 20.596C78.1605 20.204 78.3665 19.872 78.6305 19.6C78.8985 19.328 79.2205 19.118 79.5965 18.97C79.9725 18.822 80.3905 18.748 80.8505 18.748ZM80.8505 23.95C81.3625 23.95 81.7405 23.778 81.9845 23.434C82.2325 23.09 82.3565 22.586 82.3565 21.922C82.3565 21.258 82.2325 20.752 81.9845 20.404C81.7405 20.056 81.3625 19.882 80.8505 19.882C80.3305 19.882 79.9445 20.058 79.6925 20.41C79.4445 20.758 79.3205 21.262 79.3205 21.922C79.3205 22.582 79.4445 23.086 79.6925 23.434C79.9445 23.778 80.3305 23.95 80.8505 23.95ZM86.952 25.096C86.416 25.096 86.004 24.946 85.716 24.646C85.432 24.342 85.29 23.924 85.29 23.392V19.954H84.66C84.58 19.954 84.512 19.928 84.456 19.876C84.4 19.824 84.372 19.746 84.372 19.642V19.054L85.362 18.892L85.674 17.212C85.694 17.132 85.732 17.07 85.788 17.026C85.844 16.982 85.916 16.96 86.004 16.96H86.772V18.898H88.416V19.954H86.772V23.29C86.772 23.482 86.818 23.632 86.91 23.74C87.006 23.848 87.136 23.902 87.3 23.902C87.392 23.902 87.468 23.892 87.528 23.872C87.592 23.848 87.646 23.824 87.69 23.8C87.738 23.776 87.78 23.754 87.816 23.734C87.852 23.71 87.888 23.698 87.924 23.698C87.968 23.698 88.004 23.71 88.032 23.734C88.06 23.754 88.09 23.786 88.122 23.83L88.566 24.55C88.35 24.73 88.102 24.866 87.822 24.958C87.542 25.05 87.252 25.096 86.952 25.096ZM96.0388 20.044C95.9988 20.108 95.9568 20.154 95.9128 20.182C95.8688 20.206 95.8128 20.218 95.7448 20.218C95.6728 20.218 95.5948 20.198 95.5108 20.158C95.4308 20.118 95.3368 20.074 95.2288 20.026C95.1208 19.974 94.9968 19.928 94.8568 19.888C94.7208 19.848 94.5588 19.828 94.3708 19.828C94.0788 19.828 93.8488 19.89 93.6808 20.014C93.5168 20.138 93.4348 20.3 93.4348 20.5C93.4348 20.632 93.4768 20.744 93.5608 20.836C93.6488 20.924 93.7628 21.002 93.9028 21.07C94.0468 21.138 94.2088 21.2 94.3888 21.256C94.5688 21.308 94.7508 21.366 94.9348 21.43C95.1228 21.494 95.3068 21.568 95.4868 21.652C95.6668 21.732 95.8268 21.836 95.9668 21.964C96.1108 22.088 96.2248 22.238 96.3088 22.414C96.3968 22.59 96.4408 22.802 96.4408 23.05C96.4408 23.346 96.3868 23.62 96.2788 23.872C96.1748 24.12 96.0188 24.336 95.8108 24.52C95.6028 24.7 95.3448 24.842 95.0368 24.946C94.7328 25.046 94.3808 25.096 93.9808 25.096C93.7688 25.096 93.5608 25.076 93.3568 25.036C93.1568 25 92.9628 24.948 92.7748 24.88C92.5908 24.812 92.4188 24.732 92.2588 24.64C92.1028 24.548 91.9648 24.448 91.8448 24.34L92.1868 23.776C92.2308 23.708 92.2828 23.656 92.3428 23.62C92.4028 23.584 92.4788 23.566 92.5708 23.566C92.6628 23.566 92.7488 23.592 92.8288 23.644C92.9128 23.696 93.0088 23.752 93.1168 23.812C93.2248 23.872 93.3508 23.928 93.4948 23.98C93.6428 24.032 93.8288 24.058 94.0528 24.058C94.2288 24.058 94.3788 24.038 94.5028 23.998C94.6308 23.954 94.7348 23.898 94.8148 23.83C94.8988 23.762 94.9588 23.684 94.9948 23.596C95.0348 23.504 95.0548 23.41 95.0548 23.314C95.0548 23.17 95.0108 23.052 94.9228 22.96C94.8388 22.868 94.7248 22.788 94.5808 22.72C94.4408 22.652 94.2788 22.592 94.0948 22.54C93.9148 22.484 93.7288 22.424 93.5368 22.36C93.3488 22.296 93.1628 22.222 92.9788 22.138C92.7988 22.05 92.6368 21.94 92.4928 21.808C92.3528 21.676 92.2388 21.514 92.1508 21.322C92.0668 21.13 92.0248 20.898 92.0248 20.626C92.0248 20.374 92.0748 20.134 92.1748 19.906C92.2748 19.678 92.4208 19.48 92.6128 19.312C92.8088 19.14 93.0508 19.004 93.3388 18.904C93.6308 18.8 93.9668 18.748 94.3468 18.748C94.7708 18.748 95.1568 18.818 95.5048 18.958C95.8528 19.098 96.1428 19.282 96.3748 19.51L96.0388 20.044ZM100.28 18.748C100.736 18.748 101.15 18.822 101.522 18.97C101.898 19.118 102.218 19.328 102.482 19.6C102.75 19.872 102.956 20.204 103.1 20.596C103.244 20.988 103.316 21.426 103.316 21.91C103.316 22.398 103.244 22.838 103.1 23.23C102.956 23.622 102.75 23.956 102.482 24.232C102.218 24.508 101.898 24.72 101.522 24.868C101.15 25.016 100.736 25.09 100.28 25.09C99.8202 25.09 99.4022 25.016 99.0262 24.868C98.6502 24.72 98.3282 24.508 98.0602 24.232C97.7962 23.956 97.5902 23.622 97.4422 23.23C97.2982 22.838 97.2262 22.398 97.2262 21.91C97.2262 21.426 97.2982 20.988 97.4422 20.596C97.5902 20.204 97.7962 19.872 98.0602 19.6C98.3282 19.328 98.6502 19.118 99.0262 18.97C99.4022 18.822 99.8202 18.748 100.28 18.748ZM100.28 23.95C100.792 23.95 101.17 23.778 101.414 23.434C101.662 23.09 101.786 22.586 101.786 21.922C101.786 21.258 101.662 20.752 101.414 20.404C101.17 20.056 100.792 19.882 100.28 19.882C99.7602 19.882 99.3742 20.058 99.1222 20.41C98.8742 20.758 98.7502 21.262 98.7502 21.922C98.7502 22.582 98.8742 23.086 99.1222 23.434C99.3742 23.778 99.7602 23.95 100.28 23.95ZM107.171 18.748C107.627 18.748 108.041 18.822 108.413 18.97C108.789 19.118 109.109 19.328 109.373 19.6C109.641 19.872 109.847 20.204 109.991 20.596C110.135 20.988 110.207 21.426 110.207 21.91C110.207 22.398 110.135 22.838 109.991 23.23C109.847 23.622 109.641 23.956 109.373 24.232C109.109 24.508 108.789 24.72 108.413 24.868C108.041 25.016 107.627 25.09 107.171 25.09C106.711 25.09 106.293 25.016 105.917 24.868C105.541 24.72 105.219 24.508 104.951 24.232C104.687 23.956 104.481 23.622 104.333 23.23C104.189 22.838 104.117 22.398 104.117 21.91C104.117 21.426 104.189 20.988 104.333 20.596C104.481 20.204 104.687 19.872 104.951 19.6C105.219 19.328 105.541 19.118 105.917 18.97C106.293 18.822 106.711 18.748 107.171 18.748ZM107.171 23.95C107.683 23.95 108.061 23.778 108.305 23.434C108.553 23.09 108.677 22.586 108.677 21.922C108.677 21.258 108.553 20.752 108.305 20.404C108.061 20.056 107.683 19.882 107.171 19.882C106.651 19.882 106.265 20.058 106.013 20.41C105.765 20.758 105.641 21.262 105.641 21.922C105.641 22.582 105.765 23.086 106.013 23.434C106.265 23.778 106.651 23.95 107.171 23.95ZM112.723 19.6C112.847 19.476 112.977 19.362 113.113 19.258C113.253 19.15 113.399 19.06 113.551 18.988C113.707 18.912 113.873 18.854 114.049 18.814C114.225 18.77 114.417 18.748 114.625 18.748C114.961 18.748 115.259 18.806 115.519 18.922C115.779 19.034 115.995 19.194 116.167 19.402C116.343 19.606 116.475 19.852 116.563 20.14C116.655 20.424 116.701 20.738 116.701 21.082V25H115.219V21.082C115.219 20.706 115.133 20.416 114.961 20.212C114.789 20.004 114.527 19.9 114.175 19.9C113.919 19.9 113.679 19.958 113.455 20.074C113.231 20.19 113.019 20.348 112.819 20.548V25H111.337V18.844H112.243C112.435 18.844 112.561 18.934 112.621 19.114L112.723 19.6Z" fill="#152536"/>
</svg>
