<svg width="205" height="32" viewBox="0 0 205 32" fill="none" xmlns="http://www.w3.org/2000/svg">
<path d="M180.641 32H24.3588C10.8529 32 0 26.965 0 20.6993V19.2447C0 8.61538 18.5706 0 41.4824 0H163.518C186.429 0 205 8.61538 205 19.2447V20.6993C205 26.965 194.147 32 180.641 32Z" fill="#2B1A09"/>
<path opacity="0.2" d="M183.053 2.23779C183.294 3.24479 183.294 4.25178 183.294 5.25877C183.294 18.1259 160.865 28.5315 133.129 28.5315H6.75293C11.0941 30.6574 17.3647 32 24.3588 32H180.641C194.147 32 205 26.9651 205 20.6993V19.2448C205 11.8602 196.076 5.48255 183.053 2.23779Z" fill="black"/>
<path d="M36.4176 15.7762C40.2765 13.0909 43.4118 10.4056 46.7882 8.05594C50.1647 5.5944 53.5412 3.35664 57.4 1.45454C58.3647 1.00699 59.3294 0.447552 60.2941 0H44.6176C41.7235 1.9021 39.5529 4.02797 38.1059 6.26573C36.1765 9.28671 35.4529 12.5315 36.4176 15.7762Z" fill="#A98C4E"/>
<path d="M71.3882 15.7762C75.247 13.0909 78.3823 10.4056 81.7588 8.05594C85.1353 5.5944 88.5117 3.35664 92.3706 1.45454C93.3353 1.00699 94.3 0.447552 95.2647 0H79.5882C76.6941 1.9021 74.5235 4.02797 73.0765 6.26573C71.147 9.28671 70.4235 12.5315 71.3882 15.7762Z" fill="#A98C4E"/>
<path d="M106.359 15.7762C110.218 13.0909 113.353 10.4056 116.729 8.05594C120.106 5.5944 123.482 3.35664 127.341 1.45454C128.306 1.00699 129.271 0.447552 130.235 0H114.559C111.665 1.9021 109.494 4.02797 108.047 6.26573C106.118 9.28671 105.394 12.5315 106.359 15.7762Z" fill="#A98C4E"/>
<path d="M141.329 15.7761C145.188 13.0908 148.324 10.4055 151.7 8.05587C155.076 5.59433 158.453 3.35657 162.312 1.45447L165.206 0.111816H149.529C146.635 2.01391 144.465 4.13979 143.018 6.37755C141.088 9.28664 140.124 12.5314 141.329 15.7761Z" fill="#A98C4E"/>
<path d="M76.6708 21.748C77.1268 21.748 77.5408 21.822 77.9128 21.97C78.2888 22.118 78.6088 22.328 78.8728 22.6C79.1408 22.872 79.3468 23.204 79.4908 23.596C79.6348 23.988 79.7068 24.426 79.7068 24.91C79.7068 25.398 79.6348 25.838 79.4908 26.23C79.3468 26.622 79.1408 26.956 78.8728 27.232C78.6088 27.508 78.2888 27.72 77.9128 27.868C77.5408 28.016 77.1268 28.09 76.6708 28.09C76.2108 28.09 75.7928 28.016 75.4168 27.868C75.0408 27.72 74.7188 27.508 74.4508 27.232C74.1868 26.956 73.9808 26.622 73.8328 26.23C73.6888 25.838 73.6168 25.398 73.6168 24.91C73.6168 24.426 73.6888 23.988 73.8328 23.596C73.9808 23.204 74.1868 22.872 74.4508 22.6C74.7188 22.328 75.0408 22.118 75.4168 21.97C75.7928 21.822 76.2108 21.748 76.6708 21.748ZM76.6708 26.95C77.1828 26.95 77.5608 26.778 77.8048 26.434C78.0528 26.09 78.1768 25.586 78.1768 24.922C78.1768 24.258 78.0528 23.752 77.8048 23.404C77.5608 23.056 77.1828 22.882 76.6708 22.882C76.1508 22.882 75.7648 23.058 75.5128 23.41C75.2648 23.758 75.1408 24.262 75.1408 24.922C75.1408 25.582 75.2648 26.086 75.5128 26.434C75.7648 26.778 76.1508 26.95 76.6708 26.95ZM86.2 21.844L83.758 28H82.414L79.972 21.844H81.196C81.308 21.844 81.4 21.87 81.472 21.922C81.548 21.974 81.598 22.04 81.622 22.12L82.81 25.408C82.874 25.6 82.93 25.788 82.978 25.972C83.026 26.156 83.068 26.34 83.104 26.524C83.144 26.34 83.188 26.156 83.236 25.972C83.284 25.788 83.342 25.6 83.41 25.408L84.622 22.12C84.65 22.04 84.7 21.974 84.772 21.922C84.844 21.87 84.93 21.844 85.03 21.844H86.2ZM90.7683 24.214C90.7683 24.022 90.7403 23.842 90.6843 23.674C90.6323 23.502 90.5523 23.352 90.4443 23.224C90.3363 23.096 90.1983 22.996 90.0303 22.924C89.8663 22.848 89.6743 22.81 89.4543 22.81C89.0263 22.81 88.6883 22.932 88.4403 23.176C88.1963 23.42 88.0403 23.766 87.9723 24.214H90.7683ZM87.9423 25.108C87.9663 25.424 88.0223 25.698 88.1103 25.93C88.1983 26.158 88.3143 26.348 88.4583 26.5C88.6023 26.648 88.7723 26.76 88.9683 26.836C89.1683 26.908 89.3883 26.944 89.6283 26.944C89.8683 26.944 90.0743 26.916 90.2463 26.86C90.4223 26.804 90.5743 26.742 90.7023 26.674C90.8343 26.606 90.9483 26.544 91.0443 26.488C91.1443 26.432 91.2403 26.404 91.3323 26.404C91.4563 26.404 91.5483 26.45 91.6083 26.542L92.0343 27.082C91.8703 27.274 91.6863 27.436 91.4823 27.568C91.2783 27.696 91.0643 27.8 90.8403 27.88C90.6203 27.956 90.3943 28.01 90.1623 28.042C89.9343 28.074 89.7123 28.09 89.4963 28.09C89.0683 28.09 88.6703 28.02 88.3023 27.88C87.9343 27.736 87.6143 27.526 87.3423 27.25C87.0703 26.97 86.8563 26.626 86.7003 26.218C86.5443 25.806 86.4663 25.33 86.4663 24.79C86.4663 24.37 86.5343 23.976 86.6703 23.608C86.8063 23.236 87.0003 22.914 87.2523 22.642C87.5083 22.366 87.8183 22.148 88.1823 21.988C88.5503 21.828 88.9643 21.748 89.4243 21.748C89.8123 21.748 90.1703 21.81 90.4983 21.934C90.8263 22.058 91.1083 22.24 91.3443 22.48C91.5803 22.716 91.7643 23.008 91.8963 23.356C92.0323 23.7 92.1003 24.094 92.1003 24.538C92.1003 24.762 92.0763 24.914 92.0283 24.994C91.9803 25.07 91.8883 25.108 91.7523 25.108H87.9423ZM94.6105 22.912C94.8025 22.544 95.0305 22.256 95.2945 22.048C95.5585 21.836 95.8705 21.73 96.2305 21.73C96.5145 21.73 96.7425 21.792 96.9145 21.916L96.8185 23.026C96.7985 23.098 96.7685 23.15 96.7285 23.182C96.6925 23.21 96.6425 23.224 96.5785 23.224C96.5185 23.224 96.4285 23.214 96.3085 23.194C96.1925 23.174 96.0785 23.164 95.9665 23.164C95.8025 23.164 95.6565 23.188 95.5285 23.236C95.4005 23.284 95.2845 23.354 95.1805 23.446C95.0805 23.534 94.9905 23.642 94.9105 23.77C94.8345 23.898 94.7625 24.044 94.6945 24.208V28H93.2125V21.844H94.0825C94.2345 21.844 94.3405 21.872 94.4005 21.928C94.4605 21.98 94.5005 22.076 94.5205 22.216L94.6105 22.912ZM101.389 23.416C101.221 23.212 101.037 23.068 100.837 22.984C100.641 22.9 100.429 22.858 100.201 22.858C99.977 22.858 99.775 22.9 99.595 22.984C99.415 23.068 99.261 23.196 99.133 23.368C99.005 23.536 98.907 23.752 98.839 24.016C98.771 24.276 98.737 24.584 98.737 24.94C98.737 25.3 98.765 25.606 98.821 25.858C98.881 26.106 98.965 26.31 99.073 26.47C99.181 26.626 99.313 26.74 99.469 26.812C99.625 26.88 99.799 26.914 99.991 26.914C100.299 26.914 100.561 26.85 100.777 26.722C100.993 26.594 101.197 26.412 101.389 26.176V23.416ZM102.871 19.084V28H101.965C101.769 28 101.645 27.91 101.593 27.73L101.467 27.136C101.219 27.42 100.933 27.65 100.609 27.826C100.289 28.002 99.915 28.09 99.487 28.09C99.151 28.09 98.843 28.02 98.563 27.88C98.283 27.74 98.041 27.538 97.837 27.274C97.637 27.006 97.481 26.676 97.369 26.284C97.261 25.892 97.207 25.444 97.207 24.94C97.207 24.484 97.269 24.06 97.393 23.668C97.517 23.276 97.695 22.936 97.927 22.648C98.159 22.36 98.437 22.136 98.761 21.976C99.085 21.812 99.449 21.73 99.853 21.73C100.197 21.73 100.491 21.784 100.735 21.892C100.979 22 101.197 22.146 101.389 22.33V19.084H102.871ZM109.638 21.844V28H108.732C108.536 28 108.412 27.91 108.36 27.73L108.258 27.238C108.006 27.494 107.728 27.702 107.424 27.862C107.12 28.018 106.762 28.096 106.35 28.096C106.014 28.096 105.716 28.04 105.456 27.928C105.2 27.812 104.984 27.65 104.808 27.442C104.632 27.234 104.498 26.988 104.406 26.704C104.318 26.416 104.274 26.1 104.274 25.756V21.844H105.756V25.756C105.756 26.132 105.842 26.424 106.014 26.632C106.19 26.836 106.452 26.938 106.8 26.938C107.056 26.938 107.296 26.882 107.52 26.77C107.744 26.654 107.956 26.496 108.156 26.296V21.844H109.638ZM115.073 24.214C115.073 24.022 115.045 23.842 114.989 23.674C114.937 23.502 114.857 23.352 114.749 23.224C114.641 23.096 114.503 22.996 114.335 22.924C114.171 22.848 113.979 22.81 113.759 22.81C113.331 22.81 112.993 22.932 112.745 23.176C112.501 23.42 112.345 23.766 112.277 24.214H115.073ZM112.247 25.108C112.271 25.424 112.327 25.698 112.415 25.93C112.503 26.158 112.619 26.348 112.763 26.5C112.907 26.648 113.077 26.76 113.273 26.836C113.473 26.908 113.693 26.944 113.933 26.944C114.173 26.944 114.379 26.916 114.551 26.86C114.727 26.804 114.879 26.742 115.007 26.674C115.139 26.606 115.253 26.544 115.349 26.488C115.449 26.432 115.545 26.404 115.637 26.404C115.761 26.404 115.853 26.45 115.913 26.542L116.339 27.082C116.175 27.274 115.991 27.436 115.787 27.568C115.583 27.696 115.369 27.8 115.145 27.88C114.925 27.956 114.699 28.01 114.467 28.042C114.239 28.074 114.017 28.09 113.801 28.09C113.373 28.09 112.975 28.02 112.607 27.88C112.239 27.736 111.919 27.526 111.647 27.25C111.375 26.97 111.161 26.626 111.005 26.218C110.849 25.806 110.771 25.33 110.771 24.79C110.771 24.37 110.839 23.976 110.975 23.608C111.111 23.236 111.305 22.914 111.557 22.642C111.813 22.366 112.123 22.148 112.487 21.988C112.855 21.828 113.269 21.748 113.729 21.748C114.117 21.748 114.475 21.81 114.803 21.934C115.131 22.058 115.413 22.24 115.649 22.48C115.885 22.716 116.069 23.008 116.201 23.356C116.337 23.7 116.405 24.094 116.405 24.538C116.405 24.762 116.381 24.914 116.333 24.994C116.285 25.07 116.193 25.108 116.057 25.108H112.247Z" fill="white"/>
</svg>
