<svg width="100%" height="100%" viewBox="0 0 205 32" fill="none" xmlns="http://www.w3.org/2000/svg">
<path d="M180.641 32H24.3588C10.8529 32 0 26.965 0 20.6993V19.2447C0 8.61538 18.5706 0 41.4824 0H163.518C186.429 0 205 8.61538 205 19.2447V20.6993C205 26.965 194.147 32 180.641 32Z" fill="#B65C1A"/>
<path opacity="0.2" d="M183.053 2.23779C183.294 3.24479 183.294 4.25178 183.294 5.25877C183.294 18.1259 160.865 28.5315 133.129 28.5315H6.75293C11.0941 30.6574 17.3647 32 24.3588 32H180.641C194.147 32 205 26.9651 205 20.6993V19.2448C205 11.8602 196.076 5.48255 183.053 2.23779Z" fill="black"/>
<path d="M36.4176 15.7762C40.2765 13.0909 43.4118 10.4056 46.7882 8.05594C50.1647 5.5944 53.5412 3.35664 57.4 1.45454C58.3647 1.00699 59.3294 0.447552 60.2941 0H44.6176C41.7235 1.9021 39.5529 4.02797 38.1059 6.26573C36.1765 9.28671 35.4529 12.5315 36.4176 15.7762Z" fill="#F3E5C7"/>
<path d="M71.3882 15.7762C75.247 13.0909 78.3823 10.4056 81.7588 8.05594C85.1353 5.5944 88.5117 3.35664 92.3706 1.45454C93.3353 1.00699 94.3 0.447552 95.2647 0H79.5882C76.6941 1.9021 74.5235 4.02797 73.0765 6.26573C71.147 9.28671 70.4235 12.5315 71.3882 15.7762Z" fill="#F3E5C7"/>
<path d="M106.359 15.7762C110.218 13.0909 113.353 10.4056 116.729 8.05594C120.106 5.5944 123.482 3.35664 127.341 1.45454C128.306 1.00699 129.271 0.447552 130.235 0H114.559C111.665 1.9021 109.494 4.02797 108.047 6.26573C106.118 9.28671 105.394 12.5315 106.359 15.7762Z" fill="#F3E5C7"/>
<path d="M141.329 15.7761C145.188 13.0908 148.324 10.4055 151.7 8.05587C155.076 5.59433 158.453 3.35657 162.312 1.45447L165.206 0.111816H149.529C146.635 2.01391 144.465 4.13979 143.018 6.37755C141.088 9.28664 140.124 12.5314 141.329 15.7761Z" fill="#F3E5C7"/>
<path d="M85.5739 20.044C85.5339 20.108 85.4919 20.154 85.4479 20.182C85.4039 20.206 85.3479 20.218 85.2799 20.218C85.2079 20.218 85.1299 20.198 85.0459 20.158C84.9659 20.118 84.8719 20.074 84.7639 20.026C84.6559 19.974 84.5319 19.928 84.3919 19.888C84.2559 19.848 84.0939 19.828 83.9059 19.828C83.6139 19.828 83.3839 19.89 83.2159 20.014C83.0519 20.138 82.9699 20.3 82.9699 20.5C82.9699 20.632 83.0119 20.744 83.0959 20.836C83.1839 20.924 83.2979 21.002 83.4379 21.07C83.5819 21.138 83.7439 21.2 83.9239 21.256C84.1039 21.308 84.2859 21.366 84.4699 21.43C84.6579 21.494 84.8419 21.568 85.0219 21.652C85.2019 21.732 85.3619 21.836 85.5019 21.964C85.6459 22.088 85.7599 22.238 85.8439 22.414C85.9319 22.59 85.9759 22.802 85.9759 23.05C85.9759 23.346 85.9219 23.62 85.8139 23.872C85.7099 24.12 85.5539 24.336 85.3459 24.52C85.1379 24.7 84.8799 24.842 84.5719 24.946C84.2679 25.046 83.9159 25.096 83.5159 25.096C83.3039 25.096 83.0959 25.076 82.8919 25.036C82.6919 25 82.4979 24.948 82.3099 24.88C82.1259 24.812 81.9539 24.732 81.7939 24.64C81.6379 24.548 81.4999 24.448 81.3799 24.34L81.7219 23.776C81.7659 23.708 81.8179 23.656 81.8779 23.62C81.9379 23.584 82.0139 23.566 82.1059 23.566C82.1979 23.566 82.2839 23.592 82.3639 23.644C82.4479 23.696 82.5439 23.752 82.6519 23.812C82.7599 23.872 82.8859 23.928 83.0299 23.98C83.1779 24.032 83.3639 24.058 83.5879 24.058C83.7639 24.058 83.9139 24.038 84.0379 23.998C84.1659 23.954 84.2699 23.898 84.3499 23.83C84.4339 23.762 84.4939 23.684 84.5299 23.596C84.5699 23.504 84.5899 23.41 84.5899 23.314C84.5899 23.17 84.5459 23.052 84.4579 22.96C84.3739 22.868 84.2599 22.788 84.1159 22.72C83.9759 22.652 83.8139 22.592 83.6299 22.54C83.4499 22.484 83.2639 22.424 83.0719 22.36C82.8839 22.296 82.6979 22.222 82.5139 22.138C82.3339 22.05 82.1719 21.94 82.0279 21.808C81.8879 21.676 81.7739 21.514 81.6859 21.322C81.6019 21.13 81.5599 20.898 81.5599 20.626C81.5599 20.374 81.6099 20.134 81.7099 19.906C81.8099 19.678 81.9559 19.48 82.1479 19.312C82.3439 19.14 82.5859 19.004 82.8739 18.904C83.1659 18.8 83.5019 18.748 83.8819 18.748C84.3059 18.748 84.6919 18.818 85.0399 18.958C85.3879 19.098 85.6779 19.282 85.9099 19.51L85.5739 20.044ZM89.8154 18.748C90.2714 18.748 90.6854 18.822 91.0574 18.97C91.4334 19.118 91.7534 19.328 92.0174 19.6C92.2854 19.872 92.4914 20.204 92.6354 20.596C92.7794 20.988 92.8514 21.426 92.8514 21.91C92.8514 22.398 92.7794 22.838 92.6354 23.23C92.4914 23.622 92.2854 23.956 92.0174 24.232C91.7534 24.508 91.4334 24.72 91.0574 24.868C90.6854 25.016 90.2714 25.09 89.8154 25.09C89.3554 25.09 88.9374 25.016 88.5614 24.868C88.1854 24.72 87.8634 24.508 87.5954 24.232C87.3314 23.956 87.1254 23.622 86.9774 23.23C86.8334 22.838 86.7614 22.398 86.7614 21.91C86.7614 21.426 86.8334 20.988 86.9774 20.596C87.1254 20.204 87.3314 19.872 87.5954 19.6C87.8634 19.328 88.1854 19.118 88.5614 18.97C88.9374 18.822 89.3554 18.748 89.8154 18.748ZM89.8154 23.95C90.3274 23.95 90.7054 23.778 90.9494 23.434C91.1974 23.09 91.3214 22.586 91.3214 21.922C91.3214 21.258 91.1974 20.752 90.9494 20.404C90.7054 20.056 90.3274 19.882 89.8154 19.882C89.2954 19.882 88.9094 20.058 88.6574 20.41C88.4094 20.758 88.2854 21.262 88.2854 21.922C88.2854 22.582 88.4094 23.086 88.6574 23.434C88.9094 23.778 89.2954 23.95 89.8154 23.95ZM96.706 18.748C97.162 18.748 97.576 18.822 97.948 18.97C98.324 19.118 98.644 19.328 98.908 19.6C99.176 19.872 99.382 20.204 99.526 20.596C99.67 20.988 99.742 21.426 99.742 21.91C99.742 22.398 99.67 22.838 99.526 23.23C99.382 23.622 99.176 23.956 98.908 24.232C98.644 24.508 98.324 24.72 97.948 24.868C97.576 25.016 97.162 25.09 96.706 25.09C96.246 25.09 95.828 25.016 95.452 24.868C95.076 24.72 94.754 24.508 94.486 24.232C94.222 23.956 94.016 23.622 93.868 23.23C93.724 22.838 93.652 22.398 93.652 21.91C93.652 21.426 93.724 20.988 93.868 20.596C94.016 20.204 94.222 19.872 94.486 19.6C94.754 19.328 95.076 19.118 95.452 18.97C95.828 18.822 96.246 18.748 96.706 18.748ZM96.706 23.95C97.218 23.95 97.596 23.778 97.84 23.434C98.088 23.09 98.212 22.586 98.212 21.922C98.212 21.258 98.088 20.752 97.84 20.404C97.596 20.056 97.218 19.882 96.706 19.882C96.186 19.882 95.8 20.058 95.548 20.41C95.3 20.758 95.176 21.262 95.176 21.922C95.176 22.582 95.3 23.086 95.548 23.434C95.8 23.778 96.186 23.95 96.706 23.95ZM102.259 19.6C102.383 19.476 102.513 19.362 102.649 19.258C102.789 19.15 102.935 19.06 103.087 18.988C103.243 18.912 103.409 18.854 103.585 18.814C103.761 18.77 103.953 18.748 104.161 18.748C104.497 18.748 104.795 18.806 105.055 18.922C105.315 19.034 105.531 19.194 105.703 19.402C105.879 19.606 106.011 19.852 106.099 20.14C106.191 20.424 106.237 20.738 106.237 21.082V25H104.755V21.082C104.755 20.706 104.669 20.416 104.497 20.212C104.325 20.004 104.063 19.9 103.711 19.9C103.455 19.9 103.215 19.958 102.991 20.074C102.767 20.19 102.555 20.348 102.355 20.548V25H100.873V18.844H101.779C101.971 18.844 102.097 18.934 102.157 19.114L102.259 19.6Z" fill="#152536"/>
</svg>
