<svg width="202" height="32" viewBox="0 0 202 32" fill="none" xmlns="http://www.w3.org/2000/svg">
<path d="M177.253 32H23.9571C10.7093 32 0.0636902 26.965 0.0636902 20.6993V19.2447C0.0636902 8.61538 18.2794 0 40.7534 0H160.457C182.931 0 201.146 8.61538 201.146 19.2447V20.6993C201.146 26.965 190.501 32 177.253 32Z" fill="#F99D5A"/>
<path opacity="0.2" d="M179.619 2.23779C179.855 3.24479 179.855 4.25178 179.855 5.25877C179.855 18.1259 157.855 28.5315 130.649 28.5315H6.68756C10.9458 30.6574 17.0966 32 23.957 32H177.253C190.501 32 201.146 26.9651 201.146 20.6993V19.2448C201.146 11.8602 192.393 5.48255 179.619 2.23779Z" fill="#403636"/>
<path d="M35.7854 15.7762C39.5705 13.0909 42.6459 10.4056 45.9578 8.05594C49.2698 5.5944 52.5817 3.35664 56.3668 1.45454C57.3131 1.00699 58.2594 0.447552 59.2057 0H43.8287C40.9899 1.9021 38.8608 4.02797 37.4414 6.26573C35.5488 9.28671 34.8391 12.5315 35.7854 15.7762Z" fill="#F3E5C7"/>
<path d="M70.0879 15.7762C73.873 13.0909 76.9484 10.4056 80.2603 8.05594C83.5723 5.5944 86.8842 3.35664 90.6693 1.45454C91.6156 1.00699 92.5619 0.447552 93.5081 0H78.1312C75.2924 1.9021 73.1633 4.02797 71.7439 6.26573C69.8513 9.28671 69.1416 12.5315 70.0879 15.7762Z" fill="#F3E5C7"/>
<path d="M104.39 15.7762C108.175 13.0909 111.251 10.4056 114.563 8.05594C117.875 5.5944 121.186 3.35664 124.972 1.45454C125.918 1.00699 126.864 0.447552 127.81 0H112.433C109.595 1.9021 107.466 4.02797 106.046 6.26573C104.154 9.28671 103.444 12.5315 104.39 15.7762Z" fill="#F3E5C7"/>
<path d="M138.693 15.7761C142.478 13.0908 145.553 10.4055 148.865 8.05587C152.177 5.59433 155.489 3.35657 159.274 1.45447L162.113 0.111816H146.736C143.897 2.01391 141.768 4.13979 140.349 6.37755C138.456 9.28664 137.51 12.5314 138.693 15.7761Z" fill="#F3E5C7"/>
<path d="M68.2695 18.084V23.19H68.5455C68.6455 23.19 68.7235 23.178 68.7795 23.154C68.8395 23.126 68.8995 23.072 68.9595 22.992L70.4895 21.102C70.5535 21.018 70.6235 20.954 70.6995 20.91C70.7795 20.866 70.8815 20.844 71.0055 20.844H72.3615L70.4475 23.13C70.3115 23.31 70.1635 23.448 70.0035 23.544C70.0875 23.604 70.1615 23.674 70.2255 23.754C70.2935 23.834 70.3575 23.92 70.4175 24.012L72.4695 27H71.1315C71.0155 27 70.9155 26.982 70.8315 26.946C70.7475 26.906 70.6775 26.836 70.6215 26.736L69.0495 24.402C68.9935 24.31 68.9355 24.25 68.8755 24.222C68.8155 24.194 68.7255 24.18 68.6055 24.18H68.2695V27H66.7875V18.084H68.2695ZM74.7337 20.844V27H73.2457V20.844H74.7337ZM74.9377 19.05C74.9377 19.178 74.9117 19.298 74.8597 19.41C74.8077 19.522 74.7377 19.62 74.6497 19.704C74.5657 19.788 74.4657 19.856 74.3497 19.908C74.2337 19.956 74.1097 19.98 73.9777 19.98C73.8497 19.98 73.7277 19.956 73.6117 19.908C73.4997 19.856 73.4017 19.788 73.3177 19.704C73.2337 19.62 73.1657 19.522 73.1137 19.41C73.0657 19.298 73.0417 19.178 73.0417 19.05C73.0417 18.918 73.0657 18.794 73.1137 18.678C73.1657 18.562 73.2337 18.462 73.3177 18.378C73.4017 18.294 73.4997 18.228 73.6117 18.18C73.7277 18.128 73.8497 18.102 73.9777 18.102C74.1097 18.102 74.2337 18.128 74.3497 18.18C74.4657 18.228 74.5657 18.294 74.6497 18.378C74.7377 18.462 74.8077 18.562 74.8597 18.678C74.9117 18.794 74.9377 18.918 74.9377 19.05ZM77.6306 21.6C77.7546 21.476 77.8846 21.362 78.0206 21.258C78.1606 21.15 78.3066 21.06 78.4586 20.988C78.6146 20.912 78.7806 20.854 78.9566 20.814C79.1326 20.77 79.3246 20.748 79.5326 20.748C79.8686 20.748 80.1666 20.806 80.4266 20.922C80.6866 21.034 80.9026 21.194 81.0746 21.402C81.2506 21.606 81.3826 21.852 81.4706 22.14C81.5626 22.424 81.6086 22.738 81.6086 23.082V27H80.1266V23.082C80.1266 22.706 80.0406 22.416 79.8686 22.212C79.6966 22.004 79.4346 21.9 79.0826 21.9C78.8266 21.9 78.5866 21.958 78.3626 22.074C78.1386 22.19 77.9266 22.348 77.7266 22.548V27H76.2446V20.844H77.1506C77.3426 20.844 77.4686 20.934 77.5286 21.114L77.6306 21.6ZM86.882 22.416C86.714 22.212 86.53 22.068 86.33 21.984C86.134 21.9 85.922 21.858 85.694 21.858C85.47 21.858 85.268 21.9 85.088 21.984C84.908 22.068 84.754 22.196 84.626 22.368C84.498 22.536 84.4 22.752 84.332 23.016C84.264 23.276 84.23 23.584 84.23 23.94C84.23 24.3 84.258 24.606 84.314 24.858C84.374 25.106 84.458 25.31 84.566 25.47C84.674 25.626 84.806 25.74 84.962 25.812C85.118 25.88 85.292 25.914 85.484 25.914C85.792 25.914 86.054 25.85 86.27 25.722C86.486 25.594 86.69 25.412 86.882 25.176V22.416ZM88.364 18.084V27H87.458C87.262 27 87.138 26.91 87.086 26.73L86.96 26.136C86.712 26.42 86.426 26.65 86.102 26.826C85.782 27.002 85.408 27.09 84.98 27.09C84.644 27.09 84.336 27.02 84.056 26.88C83.776 26.74 83.534 26.538 83.33 26.274C83.13 26.006 82.974 25.676 82.862 25.284C82.754 24.892 82.7 24.444 82.7 23.94C82.7 23.484 82.762 23.06 82.886 22.668C83.01 22.276 83.188 21.936 83.42 21.648C83.652 21.36 83.93 21.136 84.254 20.976C84.578 20.812 84.942 20.73 85.346 20.73C85.69 20.73 85.984 20.784 86.228 20.892C86.472 21 86.69 21.146 86.882 21.33V18.084H88.364ZM95.4686 20.748C95.9246 20.748 96.3386 20.822 96.7106 20.97C97.0866 21.118 97.4066 21.328 97.6706 21.6C97.9386 21.872 98.1446 22.204 98.2886 22.596C98.4326 22.988 98.5046 23.426 98.5046 23.91C98.5046 24.398 98.4326 24.838 98.2886 25.23C98.1446 25.622 97.9386 25.956 97.6706 26.232C97.4066 26.508 97.0866 26.72 96.7106 26.868C96.3386 27.016 95.9246 27.09 95.4686 27.09C95.0086 27.09 94.5906 27.016 94.2146 26.868C93.8386 26.72 93.5166 26.508 93.2486 26.232C92.9846 25.956 92.7786 25.622 92.6306 25.23C92.4866 24.838 92.4146 24.398 92.4146 23.91C92.4146 23.426 92.4866 22.988 92.6306 22.596C92.7786 22.204 92.9846 21.872 93.2486 21.6C93.5166 21.328 93.8386 21.118 94.2146 20.97C94.5906 20.822 95.0086 20.748 95.4686 20.748ZM95.4686 25.95C95.9806 25.95 96.3586 25.778 96.6026 25.434C96.8506 25.09 96.9746 24.586 96.9746 23.922C96.9746 23.258 96.8506 22.752 96.6026 22.404C96.3586 22.056 95.9806 21.882 95.4686 21.882C94.9486 21.882 94.5626 22.058 94.3106 22.41C94.0626 22.758 93.9386 23.262 93.9386 23.922C93.9386 24.582 94.0626 25.086 94.3106 25.434C94.5626 25.778 94.9486 25.95 95.4686 25.95ZM99.9148 27V21.96L99.3808 21.876C99.2648 21.852 99.1708 21.812 99.0988 21.756C99.0308 21.696 98.9968 21.612 98.9968 21.504V20.898H99.9148V20.442C99.9148 20.09 99.9668 19.774 100.071 19.494C100.179 19.214 100.331 18.976 100.527 18.78C100.727 18.584 100.969 18.434 101.253 18.33C101.537 18.226 101.857 18.174 102.213 18.174C102.497 18.174 102.761 18.212 103.005 18.288L102.975 19.032C102.971 19.088 102.955 19.134 102.927 19.17C102.899 19.202 102.861 19.228 102.813 19.248C102.769 19.264 102.717 19.276 102.657 19.284C102.597 19.288 102.533 19.29 102.465 19.29C102.289 19.29 102.131 19.31 101.991 19.35C101.855 19.386 101.739 19.452 101.643 19.548C101.547 19.64 101.473 19.764 101.421 19.92C101.373 20.072 101.349 20.262 101.349 20.49V20.898H102.951V21.954H101.397V27H99.9148ZM110.235 22.044C110.195 22.108 110.153 22.154 110.109 22.182C110.065 22.206 110.009 22.218 109.941 22.218C109.869 22.218 109.791 22.198 109.707 22.158C109.627 22.118 109.533 22.074 109.425 22.026C109.317 21.974 109.193 21.928 109.053 21.888C108.917 21.848 108.755 21.828 108.567 21.828C108.275 21.828 108.045 21.89 107.877 22.014C107.713 22.138 107.631 22.3 107.631 22.5C107.631 22.632 107.673 22.744 107.757 22.836C107.845 22.924 107.959 23.002 108.099 23.07C108.243 23.138 108.405 23.2 108.585 23.256C108.765 23.308 108.947 23.366 109.131 23.43C109.319 23.494 109.503 23.568 109.683 23.652C109.863 23.732 110.023 23.836 110.163 23.964C110.307 24.088 110.421 24.238 110.505 24.414C110.593 24.59 110.637 24.802 110.637 25.05C110.637 25.346 110.583 25.62 110.475 25.872C110.371 26.12 110.215 26.336 110.007 26.52C109.799 26.7 109.541 26.842 109.233 26.946C108.929 27.046 108.577 27.096 108.177 27.096C107.965 27.096 107.757 27.076 107.553 27.036C107.353 27 107.159 26.948 106.971 26.88C106.787 26.812 106.615 26.732 106.455 26.64C106.299 26.548 106.161 26.448 106.041 26.34L106.383 25.776C106.427 25.708 106.479 25.656 106.539 25.62C106.599 25.584 106.675 25.566 106.767 25.566C106.859 25.566 106.945 25.592 107.025 25.644C107.109 25.696 107.205 25.752 107.313 25.812C107.421 25.872 107.547 25.928 107.691 25.98C107.839 26.032 108.025 26.058 108.249 26.058C108.425 26.058 108.575 26.038 108.699 25.998C108.827 25.954 108.931 25.898 109.011 25.83C109.095 25.762 109.155 25.684 109.191 25.596C109.231 25.504 109.251 25.41 109.251 25.314C109.251 25.17 109.207 25.052 109.119 24.96C109.035 24.868 108.921 24.788 108.777 24.72C108.637 24.652 108.475 24.592 108.291 24.54C108.111 24.484 107.925 24.424 107.733 24.36C107.545 24.296 107.359 24.222 107.175 24.138C106.995 24.05 106.833 23.94 106.689 23.808C106.549 23.676 106.435 23.514 106.347 23.322C106.263 23.13 106.221 22.898 106.221 22.626C106.221 22.374 106.271 22.134 106.371 21.906C106.471 21.678 106.617 21.48 106.809 21.312C107.005 21.14 107.247 21.004 107.535 20.904C107.827 20.8 108.163 20.748 108.543 20.748C108.967 20.748 109.353 20.818 109.701 20.958C110.049 21.098 110.339 21.282 110.571 21.51L110.235 22.044ZM114.476 20.748C114.932 20.748 115.346 20.822 115.718 20.97C116.094 21.118 116.414 21.328 116.678 21.6C116.946 21.872 117.152 22.204 117.296 22.596C117.44 22.988 117.512 23.426 117.512 23.91C117.512 24.398 117.44 24.838 117.296 25.23C117.152 25.622 116.946 25.956 116.678 26.232C116.414 26.508 116.094 26.72 115.718 26.868C115.346 27.016 114.932 27.09 114.476 27.09C114.016 27.09 113.598 27.016 113.222 26.868C112.846 26.72 112.524 26.508 112.256 26.232C111.992 25.956 111.786 25.622 111.638 25.23C111.494 24.838 111.422 24.398 111.422 23.91C111.422 23.426 111.494 22.988 111.638 22.596C111.786 22.204 111.992 21.872 112.256 21.6C112.524 21.328 112.846 21.118 113.222 20.97C113.598 20.822 114.016 20.748 114.476 20.748ZM114.476 25.95C114.988 25.95 115.366 25.778 115.61 25.434C115.858 25.09 115.982 24.586 115.982 23.922C115.982 23.258 115.858 22.752 115.61 22.404C115.366 22.056 114.988 21.882 114.476 21.882C113.956 21.882 113.57 22.058 113.318 22.41C113.07 22.758 112.946 23.262 112.946 23.922C112.946 24.582 113.07 25.086 113.318 25.434C113.57 25.778 113.956 25.95 114.476 25.95ZM121.367 20.748C121.823 20.748 122.237 20.822 122.609 20.97C122.985 21.118 123.305 21.328 123.569 21.6C123.837 21.872 124.043 22.204 124.187 22.596C124.331 22.988 124.403 23.426 124.403 23.91C124.403 24.398 124.331 24.838 124.187 25.23C124.043 25.622 123.837 25.956 123.569 26.232C123.305 26.508 122.985 26.72 122.609 26.868C122.237 27.016 121.823 27.09 121.367 27.09C120.907 27.09 120.489 27.016 120.113 26.868C119.737 26.72 119.415 26.508 119.147 26.232C118.883 25.956 118.677 25.622 118.529 25.23C118.385 24.838 118.313 24.398 118.313 23.91C118.313 23.426 118.385 22.988 118.529 22.596C118.677 22.204 118.883 21.872 119.147 21.6C119.415 21.328 119.737 21.118 120.113 20.97C120.489 20.822 120.907 20.748 121.367 20.748ZM121.367 25.95C121.879 25.95 122.257 25.778 122.501 25.434C122.749 25.09 122.873 24.586 122.873 23.922C122.873 23.258 122.749 22.752 122.501 22.404C122.257 22.056 121.879 21.882 121.367 21.882C120.847 21.882 120.461 22.058 120.209 22.41C119.961 22.758 119.837 23.262 119.837 23.922C119.837 24.582 119.961 25.086 120.209 25.434C120.461 25.778 120.847 25.95 121.367 25.95ZM126.92 21.6C127.044 21.476 127.174 21.362 127.31 21.258C127.45 21.15 127.596 21.06 127.748 20.988C127.904 20.912 128.07 20.854 128.246 20.814C128.422 20.77 128.614 20.748 128.822 20.748C129.158 20.748 129.456 20.806 129.716 20.922C129.976 21.034 130.192 21.194 130.364 21.402C130.54 21.606 130.672 21.852 130.76 22.14C130.852 22.424 130.898 22.738 130.898 23.082V27H129.416V23.082C129.416 22.706 129.33 22.416 129.158 22.212C128.986 22.004 128.724 21.9 128.372 21.9C128.116 21.9 127.876 21.958 127.652 22.074C127.428 22.19 127.216 22.348 127.016 22.548V27H125.534V20.844H126.44C126.632 20.844 126.758 20.934 126.818 21.114L126.92 21.6Z" fill="#152536"/>
</svg>
