<svg width="343" height="527" viewBox="0 0 343 527" fill="none" xmlns="http://www.w3.org/2000/svg">
<g clip-path="url(#clip0_61_909)">
<path d="M0.5 61C0.5 58.5147 2.51472 56.5 5 56.5H338C340.485 56.5 342.5 58.5147 342.5 61V522C342.5 524.485 340.485 526.5 338 526.5H5C2.51472 526.5 0.5 524.485 0.5 522V61Z" fill="white" stroke="#495867"/>
<rect x="35.5" y="0.5" width="274" height="30" rx="4.5" fill="white" stroke="#495867"/>
<path d="M3 57L35.8916 28H308.639L339 57H3Z" fill="white" stroke="#495867"/>
<path d="M84.5 15C84.5 19.6053 79.8975 23.5 74 23.5C68.1025 23.5 63.5 19.6053 63.5 15C63.5 10.3947 68.1025 6.5 74 6.5C79.8975 6.5 84.5 10.3947 84.5 15Z" fill="#C18C5D" stroke="#495867"/>
<path d="M114.5 15C114.5 19.6053 109.897 23.5 104 23.5C98.1025 23.5 93.5 19.6053 93.5 15C93.5 10.3947 98.1025 6.5 104 6.5C109.897 6.5 114.5 10.3947 114.5 15Z" fill="#C18C5D" stroke="#495867"/>
<ellipse cx="71" cy="46" rx="27" ry="4" fill="#5C5959"/>
<ellipse cx="264" cy="46" rx="27" ry="4" fill="#5B5858"/>
<path fill-rule="evenodd" clip-rule="evenodd" d="M86.6483 38.979C86.4623 38.79 86.1395 38.4221 85.8571 38.3692C85.9935 39.1626 86.0087 39.9078 85.5955 40.6066C85.547 40.1968 85.3541 39.8117 85.045 39.5077C84.7358 39.2036 84.3268 38.9965 83.8775 38.9167C84.2187 38.5989 84.5639 38.2817 84.8059 37.9091C85.3383 37.0887 85.3891 36.0493 85.0015 35.167C84.6139 34.2846 83.8115 33.5653 82.8507 33.156C82.3967 32.9627 81.8955 32.8273 81.5299 32.5195C82.2095 33.5657 82.2955 34.8999 81.7547 36.0083C81.3215 36.8961 80.5375 37.6024 79.8267 38.3357C79.1995 38.983 78.5507 39.6965 78.2687 40.5382C77.9631 41.4508 78.1975 42.4635 78.7343 43.2745C79.2615 44.0712 80.1479 44.6537 81.1263 44.9658C82.7951 45.4986 84.7547 45.2419 86.1799 44.3041C86.8899 43.8369 87.4771 43.1979 87.7395 42.448C88.1483 41.2809 87.5163 39.8614 86.6483 38.979Z" fill="#F8B26A"/>
<path fill-rule="evenodd" clip-rule="evenodd" d="M62.6484 38.979C62.4624 38.79 62.1396 38.4221 61.8572 38.3692C61.9936 39.1626 62.0088 39.9078 61.5956 40.6066C61.547 40.1968 61.3541 39.8117 61.045 39.5077C60.7359 39.2036 60.3268 38.9965 59.8776 38.9167C60.2188 38.5989 60.564 38.2817 60.8056 37.9091C61.338 37.0887 61.3888 36.0493 61.0012 35.167C60.6136 34.2846 59.8112 33.5653 58.8504 33.156C58.3964 32.9627 57.8952 32.8273 57.5296 32.5195C58.2092 33.5657 58.2952 34.8999 57.7544 36.0083C57.3212 36.8961 56.5372 37.6024 55.8264 38.3357C55.1992 38.983 54.5504 39.6965 54.2684 40.5382C53.9628 41.4508 54.1972 42.4635 54.734 43.2745C55.2612 44.0712 56.1476 44.6537 57.126 44.9658C58.7948 45.4986 60.7544 45.2419 62.1796 44.3041C62.8896 43.8369 63.4768 43.1979 63.7392 42.448C64.1484 41.2809 63.5164 39.8614 62.6484 38.979Z" fill="#F8B26A"/>
<path fill-rule="evenodd" clip-rule="evenodd" d="M77.0923 34.786C76.7815 34.4702 76.2427 33.8557 75.7715 33.7675C75.9991 35.0923 76.0247 36.3365 75.3347 37.5032C75.2537 36.8189 74.9316 36.1759 74.4154 35.6682C73.8992 35.1605 73.2161 34.8148 72.4659 34.6816C73.0355 34.1506 73.6119 33.6214 74.0159 32.9993C74.9051 31.6295 74.9899 29.8939 74.3427 28.4204C73.6955 26.947 72.3555 25.746 70.7515 25.0627C69.9935 24.7398 69.1567 24.5137 68.5459 24C69.6811 25.7467 69.8243 27.9751 68.9211 29.8255C68.1975 31.3076 66.8883 32.4877 65.7019 33.7117C64.6543 34.7924 63.5711 35.9837 63.1003 37.3891C62.5899 38.9134 62.9811 40.6039 63.8779 41.9582C64.7583 43.2884 66.2383 44.2612 67.8719 44.7824C70.6583 45.672 73.9303 45.2436 76.3103 43.6772C77.4959 42.8971 78.4763 41.8301 78.9147 40.578C79.5967 38.6293 78.5415 36.2594 77.0923 34.786Z" fill="#E15B64"/>
<path fill-rule="evenodd" clip-rule="evenodd" d="M280.648 38.979C280.462 38.79 280.14 38.4221 279.857 38.3692C279.994 39.1626 280.009 39.9078 279.596 40.6066C279.547 40.1968 279.354 39.8117 279.045 39.5077C278.736 39.2036 278.327 38.9965 277.878 38.9167C278.219 38.5989 278.564 38.2817 278.806 37.9091C279.338 37.0887 279.389 36.0493 279.002 35.167C278.614 34.2846 277.812 33.5653 276.851 33.156C276.397 32.9627 275.896 32.8273 275.53 32.5195C276.21 33.5657 276.296 34.8999 275.755 36.0083C275.322 36.8961 274.538 37.6024 273.827 38.3357C273.2 38.983 272.551 39.6965 272.269 40.5382C271.963 41.4508 272.198 42.4635 272.734 43.2745C273.262 44.0712 274.148 44.6537 275.126 44.9658C276.795 45.4986 278.755 45.2419 280.18 44.3041C280.89 43.8369 281.477 43.1979 281.74 42.448C282.148 41.2809 281.516 39.8614 280.648 38.979Z" fill="#F8B26A"/>
<path fill-rule="evenodd" clip-rule="evenodd" d="M256.648 38.979C256.462 38.79 256.14 38.4221 255.857 38.3692C255.994 39.1626 256.009 39.9078 255.596 40.6066C255.547 40.1968 255.354 39.8117 255.045 39.5077C254.736 39.2036 254.327 38.9965 253.878 38.9167C254.219 38.5989 254.564 38.2817 254.806 37.9091C255.338 37.0887 255.389 36.0493 255.001 35.167C254.614 34.2846 253.811 33.5653 252.85 33.156C252.396 32.9627 251.895 32.8273 251.53 32.5195C252.209 33.5657 252.295 34.8999 251.754 36.0083C251.321 36.8961 250.537 37.6024 249.826 38.3357C249.199 38.983 248.55 39.6965 248.268 40.5382C247.963 41.4508 248.197 42.4635 248.734 43.2745C249.261 44.0712 250.148 44.6537 251.126 44.9658C252.795 45.4986 254.754 45.2419 256.18 44.3041C256.89 43.8369 257.477 43.1979 257.739 42.448C258.148 41.2809 257.516 39.8614 256.648 38.979Z" fill="#F8B26A"/>
<path fill-rule="evenodd" clip-rule="evenodd" d="M271.092 34.786C270.782 34.4702 270.243 33.8557 269.772 33.7675C269.999 35.0923 270.025 36.3365 269.335 37.5032C269.254 36.8189 268.932 36.1759 268.415 35.6682C267.899 35.1605 267.216 34.8148 266.466 34.6816C267.036 34.1506 267.612 33.6214 268.016 32.9993C268.905 31.6295 268.99 29.8939 268.343 28.4204C267.696 26.947 266.356 25.746 264.752 25.0627C263.994 24.7398 263.157 24.5137 262.546 24C263.681 25.7467 263.824 27.9751 262.921 29.8255C262.198 31.3076 260.888 32.4877 259.702 33.7117C258.654 34.7924 257.571 35.9837 257.1 37.3891C256.59 38.9134 256.981 40.6039 257.878 41.9582C258.758 43.2884 260.238 44.2612 261.872 44.7824C264.658 45.672 267.93 45.2436 270.31 43.6772C271.496 42.8971 272.476 41.8301 272.915 40.578C273.597 38.6293 272.542 36.2594 271.092 34.786Z" fill="#E15B64"/>
</g>
<defs>
<clipPath id="clip0_61_909">
<rect width="343" height="527" fill="white"/>
</clipPath>
</defs>
</svg>
