<svg width="38" height="32" viewBox="0 0 38 32" fill="none" xmlns="http://www.w3.org/2000/svg">
<g clip-path="url(#clip0_36_2005)">
<path d="M25.3333 1.33325H6.33332C4.59166 1.33325 3.16666 2.53325 3.16666 3.99992V22.6666H6.33332V3.99992H25.3333V1.33325ZM30.0833 6.66659H12.6667C10.925 6.66659 9.49999 7.86659 9.49999 9.33325V27.9999C9.49999 29.4666 10.925 30.6666 12.6667 30.6666H30.0833C31.825 30.6666 33.25 29.4666 33.25 27.9999V9.33325C33.25 7.86659 31.825 6.66659 30.0833 6.66659ZM30.0833 27.9999H12.6667V9.33325H30.0833V27.9999Z" fill="#495867"/>
<path d="M25.3333 1.33325H6.33332C4.59166 1.33325 3.16666 2.53325 3.16666 3.99992V22.6666H6.33332V3.99992H25.3333V1.33325ZM30.0833 6.66659H12.6667C10.925 6.66659 9.49999 7.86659 9.49999 9.33325V27.9999C9.49999 29.4666 10.925 30.6666 12.6667 30.6666H30.0833C31.825 30.6666 33.25 29.4666 33.25 27.9999V9.33325C33.25 7.86659 31.825 6.66659 30.0833 6.66659ZM30.0833 27.9999H12.6667V9.33325H30.0833V27.9999Z" fill="#495867"/>
</g>
<defs>
<clipPath id="clip0_36_2005">
<rect width="38" height="32" fill="white"/>
</clipPath>
</defs>
</svg>
