<svg width="28" height="25" viewBox="0 0 28 25" fill="none" xmlns="http://www.w3.org/2000/svg">
<g clip-path="url(#clip0_36_1991)">
<path d="M18.0833 14.5833H17.1617L16.835 14.3021C17.9783 13.1146 18.6667 11.5729 18.6667 9.89583C18.6667 6.15625 15.2717 3.125 11.0833 3.125C6.895 3.125 3.5 6.15625 3.5 9.89583C3.5 13.6354 6.895 16.6667 11.0833 16.6667C12.9617 16.6667 14.6883 16.0521 16.0183 15.0312L16.3333 15.3229V16.1458L22.1667 21.3438L23.905 19.7917L18.0833 14.5833ZM11.0833 14.5833C8.17833 14.5833 5.83333 12.4896 5.83333 9.89583C5.83333 7.30208 8.17833 5.20833 11.0833 5.20833C13.9883 5.20833 16.3333 7.30208 16.3333 9.89583C16.3333 12.4896 13.9883 14.5833 11.0833 14.5833Z" fill="#495867"/>
</g>
<defs>
<clipPath id="clip0_36_1991">
<rect width="28" height="25" fill="white"/>
</clipPath>
</defs>
</svg>
