<svg width="19" height="23" viewBox="0 0 19 23" fill="none" xmlns="http://www.w3.org/2000/svg">
<path d="M13.8321 20.3201C14.4187 20.3201 14.8777 19.8521 14.8777 19.2801V8.04806C14.8777 7.47606 14.4187 7.00806 13.8576 7.00806H13.8321C13.271 7.00806 12.812 7.47606 12.812 8.04806V19.2801C12.812 19.8521 13.271 20.3201 13.8321 20.3201Z" fill="#322923"/>
<path d="M9.75157 20.3201C10.3381 20.3201 10.7972 19.8521 10.7972 19.2801V8.04806C10.7972 7.47606 10.3381 7.00806 9.77708 7.00806H9.75157C9.1905 7.00806 8.73145 7.47606 8.73145 8.04806V19.2801C8.73145 19.8521 9.1905 20.3201 9.75157 20.3201Z" fill="#322923"/>
<path d="M5.64556 20.3201C6.23213 20.3201 6.69119 19.8521 6.69119 19.2801V8.04806C6.69119 7.47606 6.23213 7.00806 5.67106 7.00806H5.64556C5.08448 7.00806 4.62543 7.47606 4.62543 8.04806V19.2801C4.62543 19.8521 5.08448 20.3201 5.64556 20.3201Z" fill="#322923"/>
<path d="M2.58517 6.22801V20.086C2.58517 21.36 3.6053 22.4 4.85496 22.4H14.6482C15.8978 22.4 16.918 21.36 16.918 20.086V5.70801H2.58517V6.22801ZM12.812 8.04801C12.812 7.47601 13.271 7.00801 13.8321 7.00801H13.8576C14.4187 7.00801 14.8777 7.47601 14.8777 8.04801V19.28C14.8777 19.852 14.4187 20.32 13.8576 20.32H13.8321C13.271 20.32 12.812 19.852 12.812 19.28V8.04801ZM8.73144 8.04801C8.73144 7.47601 9.1905 7.00801 9.75157 7.00801C10.3126 7.00801 10.7717 7.47601 10.7717 8.04801V19.28C10.7717 19.852 10.3126 20.32 9.75157 20.32C9.1905 20.32 8.73144 19.852 8.73144 19.28V8.04801ZM4.62543 8.04801C4.62543 7.47601 5.08449 7.00801 5.64556 7.00801H5.67106C6.23213 7.00801 6.69119 7.47601 6.69119 8.04801V19.28C6.69119 19.852 6.23213 20.32 5.67106 20.32H5.64556C5.08449 20.32 4.62543 19.852 4.62543 19.28V8.04801Z" fill="#513E2E"/>
<path d="M8.24687 1.91205H11.2817L12.2509 3.62805H14.0871L13.118 1.91205L12.4804 0.820049C12.3019 0.508049 11.9703 0.300049 11.6133 0.300049H7.88982C7.53278 0.300049 7.20124 0.508049 7.02272 0.820049L6.38514 1.93805L5.41602 3.65405H7.25225L8.24687 1.91205Z" fill="#896038"/>
<path d="M0.544922 4.66793C0.544922 5.26593 1.00398 5.73393 1.56505 5.73393H17.9636C18.5247 5.73393 18.9837 5.26593 18.9837 4.69393V4.66793C18.9837 4.09593 18.5247 3.62793 17.9636 3.62793H1.56505C1.00398 3.62793 0.544922 4.09593 0.544922 4.66793Z" fill="#D7A05B"/>
</svg>
