<?xml version="1.0" encoding="iso-8859-1"?>
<!-- Generator: Adobe Illustrator 16.0.0, SVG Export Plug-In . SVG Version: 6.00 Build 0)  -->
<!DOCTYPE svg PUBLIC "-//W3C//DTD SVG 1.1//EN" "http://www.w3.org/Graphics/SVG/1.1/DTD/svg11.dtd">
<svg version="1.1" id="Capa_1" xmlns="http://www.w3.org/2000/svg" xmlns:xlink="http://www.w3.org/1999/xlink" x="0px" y="0px"
	 width="612px" height="612px" viewBox="0 0 612 612" style="enable-background:new 0 0 612 612;" xml:space="preserve">
<g>
	<g id="Add">
		<g>
			<path d="M401.625,267.75H344.25v-57.375c0-21.114-17.136-38.25-38.25-38.25s-38.25,17.117-38.25,38.25v57.375h-57.375
				c-21.114,0-38.25,17.117-38.25,38.25c0,21.114,17.136,38.25,38.25,38.25h57.375v57.375c0,21.114,17.136,38.25,38.25,38.25
				s38.25-17.117,38.25-38.25V344.25h57.375c21.114,0,38.25-17.136,38.25-38.25S422.739,267.75,401.625,267.75z M306,0
				C136.992,0,0,136.992,0,306s136.992,306,306,306s306-136.992,306-306S475.008,0,306,0z M306,554.625
				C168.912,554.625,57.375,443.088,57.375,306S168.912,57.375,306,57.375S554.625,168.912,554.625,306S443.088,554.625,306,554.625
				z"/>
		</g>
	</g>
</g>
<g>
</g>
<g>
</g>
<g>
</g>
<g>
</g>
<g>
</g>
<g>
</g>
<g>
</g>
<g>
</g>
<g>
</g>
<g>
</g>
<g>
</g>
<g>
</g>
<g>
</g>
<g>
</g>
<g>
</g>
</svg>
