<svg class="lds-gear" width="20px" height="20px" xmlns="http://www.w3.org/2000/svg" xmlns:xlink="http://www.w3.org/1999/xlink" viewBox="0 0 100 100" preserveAspectRatio="xMidYMid"><g transform="translate(50 50)"> <g transform="rotate(117.374)"> <animateTransform attributeName="transform" type="rotate" values="0;360" keyTimes="0;1" dur="1.2s" repeatCount="indefinite"></animateTransform><path d="M37.52332607858744 -6 L47.52332607858744 -6 L47.52332607858744 6 L37.52332607858744 6 A38 38 0 0 1 33.88371999680473 17.201555719705567 L33.88371999680473 17.201555719705567 L41.9738899405542 23.0794082426303 L34.92046691304452 32.78761217512967 L26.830296969295052 26.909759652204936 A38 38 0 0 1 17.3016845415271 33.83270181385877 L17.3016845415271 33.83270181385877 L20.391854485276575 43.343266976810305 L8.979176289734722 47.05147090930968 L5.889006345985248 37.54090574635814 A38 38 0 0 1 -5.889006345985243 37.54090574635814 L-5.889006345985243 37.54090574635814 L-8.979176289734717 47.05147090930968 L-20.391854485276568 43.343266976810305 L-17.301684541527095 33.83270181385877 A38 38 0 0 1 -26.830296969295045 26.909759652204944 L-26.830296969295045 26.909759652204944 L-34.92046691304452 32.787612175129674 L-41.9738899405542 23.0794082426303 L-33.88371999680473 17.201555719705567 A38 38 0 0 1 -37.52332607858744 6.000000000000009 L-37.52332607858744 6.000000000000009 L-47.52332607858744 6.00000000000001 L-47.52332607858744 -5.999999999999999 L-37.52332607858744 -6 A38 38 0 0 1 -33.88371999680473 -17.20155571970556 L-33.88371999680473 -17.20155571970556 L-41.9738899405542 -23.07940824263029 L-34.92046691304453 -32.78761217512967 L-26.830296969295052 -26.909759652204936 A38 38 0 0 1 -17.301684541527102 -33.83270181385876 L-17.301684541527102 -33.83270181385876 L-20.39185448527658 -43.3432669768103 L-8.97917628973473 -47.05147090930968 L-5.889006345985253 -37.54090574635814 A38 38 0 0 1 5.889006345985239 -37.54090574635814 L5.889006345985239 -37.54090574635814 L8.979176289734712 -47.05147090930968 L20.391854485276564 -43.343266976810305 L17.30168454152709 -33.83270181385877 A38 38 0 0 1 26.830296969295045 -26.909759652204947 L26.830296969295045 -26.909759652204947 L34.92046691304452 -32.78761217512968 L41.9738899405542 -23.079408242630304 L33.88371999680473 -17.20155571970557 A38 38 0 0 1 37.52332607858743 -6.000000000000013 M0 -24A24 24 0 1 0 0 24 A24 24 0 1 0 0 -24" fill="#000000"></path></g></g></svg>