<?xml version="1.0" encoding="iso-8859-1"?>
<!-- Generator: Adobe Illustrator 19.0.0, SVG Export Plug-In . SVG Version: 6.00 Build 0)  -->
<svg version="1.1" id="Layer_1" xmlns="http://www.w3.org/2000/svg" xmlns:xlink="http://www.w3.org/1999/xlink" x="0px" y="0px"
	 viewBox="0 0 510.172 510.172" style="enable-background:new 0 0 510.172 510.172;" xml:space="preserve">
<g>
	<g>
		<path d="M491.886,62.171H190.171c-10.971,0-18.286,7.314-18.286,18.286s9.143,18.286,18.286,18.286h301.715
			c10.971,0,18.286-7.314,18.286-18.286S502.858,62.171,491.886,62.171z"/>
	</g>
</g>
<g>
	<g>
		<path d="M493.714,237.714H190.171c-10.971,0-18.286,7.314-18.286,18.286s7.314,18.286,18.286,18.286h301.715
			c10.971,0,18.286-7.314,18.286-18.286S502.858,237.714,493.714,237.714z"/>
	</g>
</g>
<g>
	<g>
		<path d="M493.714,413.257H190.171c-10.971,0-18.286,7.314-18.286,18.286c0,10.971,7.314,18.286,18.286,18.286h301.715
			c10.971,0,18.286-7.314,18.286-18.286C510.172,420.571,502.858,413.257,493.714,413.257z"/>
	</g>
</g>
<g>
	<g>
		<path d="M65.829,14.629C29.257,14.629,0,43.886,0,80.457c0,36.571,29.257,65.829,65.829,65.829
			c36.571,0,65.829-29.257,65.829-65.829C131.657,43.886,102.4,14.629,65.829,14.629z M65.829,111.543
			c-16.458,0-29.257-12.799-29.257-29.257c0-16.458,12.8-29.257,29.257-29.257c16.458,0,29.257,12.8,29.257,29.257
			C95.086,96.915,82.286,111.543,65.829,111.543z"/>
	</g>
</g>
<g>
	<g>
		<path d="M65.829,190.171C29.257,190.171,0,219.429,0,256c0,36.571,29.257,65.829,65.829,65.829
			c36.571,0,65.829-29.257,65.829-65.829S102.4,190.171,65.829,190.171z M65.829,285.257c-16.458,0-29.257-12.8-29.257-29.257
			s12.8-29.257,29.257-29.257c16.458,0,29.257,12.799,29.257,29.257S82.286,285.257,65.829,285.257z"/>
	</g>
</g>
<g>
	<g>
		<path d="M65.829,363.886C29.257,363.886,0,393.143,0,429.715s29.257,65.829,65.829,65.829c36.571,0,65.829-29.257,65.829-65.829
			C131.657,394.971,102.4,363.886,65.829,363.886z M65.829,460.8c-16.458,0-29.257-12.8-29.257-29.257
			c0-16.457,12.8-29.257,29.257-29.257c16.458,0,29.257,12.8,29.257,29.257C95.086,448,82.286,460.8,65.829,460.8z"/>
	</g>
</g>
<g>
</g>
<g>
</g>
<g>
</g>
<g>
</g>
<g>
</g>
<g>
</g>
<g>
</g>
<g>
</g>
<g>
</g>
<g>
</g>
<g>
</g>
<g>
</g>
<g>
</g>
<g>
</g>
<g>
</g>
</svg>
