<svg width="27" height="24" viewBox="0 0 27 24" fill="none" xmlns="http://www.w3.org/2000/svg">
<path d="M1.12866 19.2687L13.2584 12.1218V3.74512L1.12866 10.892V19.2687Z" fill="#F3E4C7" stroke="#A67F57" stroke-miterlimit="10" stroke-linejoin="round"/>
<path d="M22.7802 16.0891L13.1296 12.3519V3.97548C13.1296 1.49171 22.7802 5.22894 22.7802 7.7127V16.0891Z" fill="#F3E4C7" stroke="#A67F57" stroke-miterlimit="10" stroke-linejoin="round"/>
<path d="M10.6505 23.236L22.7802 16.0891V7.71265L10.6505 14.8596V23.236Z" fill="#F0AE6B" stroke="#A67F57" stroke-miterlimit="10" stroke-linejoin="round"/>
<path d="M22.7122 16.1177L25.775 14.282V5.9082L22.7122 7.81398V16.1177Z" fill="#F0AE6B" stroke="#A67F57" stroke-miterlimit="10" stroke-linejoin="round"/>
<path d="M16.3824 1.15476L15.8379 1.48402L13.5657 2.89048L13.4709 2.94602L1.32568 10.525C4.66705 10.1689 7.76475 11.5487 10.6504 14.4373L14.2016 12.3448L25.7751 5.43172C25.7751 3.26921 18.2754 0.284911 16.3824 1.15476Z" fill="#F0AE6B" stroke="#A67F57" stroke-miterlimit="10" stroke-linejoin="round"/>
<path d="M10.6506 23.2359L1 19.4986V11.1222C1 8.63844 10.6506 12.3757 10.6506 14.8594V23.2359Z" fill="#F3E4C7" stroke="#A67F57" stroke-miterlimit="10" stroke-linejoin="round"/>
<path d="M22.7802 7.29022C22.7802 5.12771 15.4681 2.01721 13.5751 2.88706" stroke="#A67F57" stroke-miterlimit="10" stroke-linejoin="round"/>
<path d="M19.7364 9.18206C19.7364 7.01955 12.4242 3.90906 10.5312 4.77891" stroke="#A67F57" stroke-miterlimit="10" stroke-linejoin="round"/>
<path d="M16.6923 11.0742C16.6923 8.91164 9.38016 5.80115 7.48718 6.671" stroke="#A67F57" stroke-miterlimit="10" stroke-linejoin="round"/>
<path d="M13.6485 12.9658C13.6485 10.8032 6.33634 7.69275 4.44336 8.5626" stroke="#A67F57" stroke-miterlimit="10" stroke-linejoin="round"/>
<path d="M10.6048 14.8576C10.6048 12.6951 3.29264 9.5846 1.39966 10.4544" stroke="#A67F57" stroke-miterlimit="10" stroke-linejoin="round"/>
<path d="M13.6486 13.3662V21.4652" stroke="#A67F57" stroke-miterlimit="10" stroke-linejoin="round"/>
<path d="M16.6924 11.0742V19.6627" stroke="#A67F57" stroke-miterlimit="10" stroke-linejoin="round"/>
<path d="M19.7365 9.18213V17.8825" stroke="#A67F57" stroke-miterlimit="10" stroke-linejoin="round"/>
<path d="M25.775 5.49976V14.2002" stroke="#A67F57" stroke-miterlimit="10" stroke-linejoin="round"/>
</svg>
