<svg width="100%" height="100%" viewBox="0 0 22 23" fill="none" xmlns="http://www.w3.org/2000/svg">
<mask id="mask0_36_1946" style="mask-type:alpha" maskUnits="userSpaceOnUse" x="-1" y="0" width="23" height="23">
<path d="M0 18.0577V7.70157L10.7158 1.08513C11.1233 0.91732 12.7582 0.883758 16.0377 2.09198C19.3171 3.3002 20.7123 5.28033 21 6.11937V15.9002L10.8596 22.0851L0 18.0577Z" fill="#D9D9D9" stroke="#495867"/>
</mask>
<g mask="url(#mask0_36_1946)">
<path d="M0.855225 17.0001L13.6718 9.44848V0.597412L0.855225 8.14907V17.0001Z" fill="#F3E4C7" stroke="#A67F57" stroke-miterlimit="10" stroke-linejoin="round"/>
<path d="M23.7328 13.6408L13.5358 9.69189V0.841113C13.5358 -1.78331 23.7328 2.16555 23.7328 4.78998V13.6408Z" fill="#F3E4C7" stroke="#A67F57" stroke-miterlimit="10" stroke-linejoin="round"/>
<path d="M10.9163 21.192L23.7329 13.6403V4.78955L10.9163 12.3412V21.192Z" fill="#F0AE6B" stroke="#A67F57" stroke-miterlimit="10" stroke-linejoin="round"/>
<path d="M14.0064 -0.309047L14.0044 -0.310198L13.9964 -0.305595L13.8962 -0.24691L1.06323 7.76128C4.59382 7.38501 7.86694 8.84292 10.916 11.8951L14.6684 9.68407L23.7329 4.34346C23.7329 2.05849 16.0066 -1.22816 14.0064 -0.309047Z" fill="#F0AE6B" stroke="#A67F57" stroke-miterlimit="10" stroke-linejoin="round"/>
<path d="M10.9163 21.1923L0.719238 17.2434V8.39263C0.719238 5.7682 10.9163 9.71707 10.9163 12.3415V21.1923Z" fill="#F3E4C7" stroke="#A67F57" stroke-miterlimit="10" stroke-linejoin="round"/>
<path d="M23.7329 4.34346C23.7329 2.05849 16.0066 -1.22816 14.0065 -0.309047" stroke="#A67F57" stroke-miterlimit="10" stroke-linejoin="round"/>
<path d="M20.658 6.25557C20.658 3.9706 12.9317 0.683953 10.9315 1.60306" stroke="#A67F57" stroke-miterlimit="10" stroke-linejoin="round"/>
<path d="M17.3004 8.34151C17.3004 6.05653 9.57415 2.76989 7.57397 3.689" stroke="#A67F57" stroke-miterlimit="10" stroke-linejoin="round"/>
<path d="M14.0841 10.3403C14.0841 8.05531 6.35784 4.76867 4.35767 5.68778" stroke="#A67F57" stroke-miterlimit="10" stroke-linejoin="round"/>
<path d="M10.8679 12.3396C10.8679 10.0546 3.14166 6.76794 1.14148 7.68705" stroke="#A67F57" stroke-miterlimit="10" stroke-linejoin="round"/>
<path d="M14.0841 10.7637V19.3213" stroke="#A67F57" stroke-miterlimit="10" stroke-linejoin="round"/>
<path d="M17.3003 8.3418V17.4167" stroke="#A67F57" stroke-miterlimit="10" stroke-linejoin="round"/>
<path d="M20.7124 6.33521V15.5283" stroke="#A67F57" stroke-miterlimit="10" stroke-linejoin="round"/>
</g>
</svg>
