<svg width="100%" height="100%" viewBox="0 0 17 18" fill="none" xmlns="http://www.w3.org/2000/svg">
<path d="M4.52569 2.6897L1.02502 4.66151V13.698L4.52569 11.726V2.6897Z" fill="#F4E6C8" stroke="#A67F57" stroke-miterlimit="10" stroke-linejoin="round"/>
<path d="M15.9659 15.028L4.52568 11.7258V2.68949C3.85825 -1.20854 16.7457 2.37869 15.9659 5.99172V15.028Z" fill="#F4E6C8" stroke="#A67F57" stroke-miterlimit="10" stroke-linejoin="round"/>
<path d="M12.4653 17.0002L1.02507 13.6979V4.66166C0.357638 0.763629 13.2451 4.35086 12.4653 7.96388V17.0002Z" fill="#F4E6C8" stroke="#A67F57" stroke-miterlimit="10" stroke-linejoin="round"/>
<path d="M12.4653 7.96371L15.966 5.9917V15.028L12.4653 17V7.96371Z" fill="#F0AE6B" stroke="#A67F57" stroke-miterlimit="10" stroke-linejoin="round"/>
<path d="M4.95297 1.47428C4.98841 1.45308 5.02334 1.43148 5.05801 1.40928C5.13407 1.36083 5.21499 1.31735 5.29998 1.27928C5.35895 1.25288 5.41995 1.22868 5.48196 1.20708C5.54651 1.18445 5.6123 1.1641 5.67913 1.14608C5.74873 1.12708 5.8196 1.11068 5.89097 1.09608C5.96538 1.08088 6.04056 1.06788 6.11623 1.05668C6.19516 1.04519 6.2745 1.03559 6.35415 1.02788C6.43717 1.01988 6.52044 1.01368 6.60396 1.00928C6.69078 1.00468 6.77759 1.00187 6.86466 1.00067C6.95476 0.999475 7.04512 0.999875 7.13523 1.00188C7.22862 1.00388 7.32176 1.00768 7.4149 1.01268C7.61008 1.02326 7.80468 1.0396 7.9983 1.06168C8.30779 1.09673 8.61505 1.14311 8.91909 1.20068C9.24073 1.261 9.55914 1.33159 9.87354 1.41228C10.0897 1.46763 10.3041 1.52698 10.5167 1.59028C10.8403 1.68718 11.1594 1.79318 11.4734 1.90808C11.7877 2.02325 12.0967 2.14747 12.3995 2.28048C12.5985 2.36836 12.7947 2.46026 12.9877 2.55609C13.1766 2.6504 13.3622 2.74877 13.5443 2.85109C13.721 2.95101 13.8937 3.05526 14.0621 3.16369C14.2243 3.26862 14.3817 3.37802 14.5342 3.49169C14.6797 3.6009 14.8194 3.71486 14.9528 3.8333C15.0797 3.94627 15.1994 4.06415 15.3115 4.1865C15.4174 4.30288 15.5146 4.42409 15.6025 4.5495C15.6864 4.66855 15.7589 4.79244 15.8192 4.9201C15.8483 4.98171 15.8746 5.04431 15.8974 5.10771C15.942 5.23152 15.9725 5.35822 15.9888 5.48631C16.0041 5.6131 16.0037 5.74078 15.9875 5.86751C15.9822 5.90911 15.9748 5.95051 15.966 5.99171L12.4653 7.96373C13.1353 4.8587 3.71201 1.77288 1.4718 3.44029L1.50521 3.42149L1.59987 3.36829L1.74794 3.28489L1.94131 3.17609L2.17214 3.04629L2.43233 2.89989L2.71403 2.74149L3.00915 2.57549L3.30983 2.40629L3.60799 2.23868L3.89551 2.07688L4.16456 1.92548L4.40703 1.78908L4.61508 1.67208C4.70898 1.61928 4.80086 1.56448 4.89324 1.50988L4.95297 1.47428Z" fill="#F0AE6B" stroke="#A67F57" stroke-miterlimit="10" stroke-linejoin="round"/>
</svg>
